<svg width="26" height="32" viewBox="0 0 26 32" fill="none" xmlns="http://www.w3.org/2000/svg">
<path d="M7.33569 21.5775V24.6311L10.1688 26.1578L13.002 24.6311V21.5775L10.1688 20.0508L7.33569 21.5775Z" fill="white"/>
<path d="M13 21.5773V24.6308L15.8331 26.1576L18.6662 24.6308V21.5773L15.8331 20.0505L13 21.5773Z" fill="#FFC945"/>
<path d="M10.1746 16.995V20.0486L13.0077 21.5753L15.8409 20.0486V16.995L13.0077 15.4683L10.1746 16.995Z" fill="#F7DB8D"/>
<path d="M21.7655 12.7827H4.236C3.86625 12.7827 3.56641 13.0626 3.56641 13.4077V25.9681C3.56641 27.9157 5.2641 29.5004 7.35075 29.5004H18.6508C20.7375 29.5004 22.4352 27.9158 22.4352 25.9681V13.4077C22.4351 13.0625 22.1353 12.7827 21.7655 12.7827ZM21.0959 25.968C21.0959 27.2265 19.9991 28.2503 18.6508 28.2503H7.35069C6.00239 28.2503 4.90553 27.2265 4.90553 25.968V14.0327H21.0958V25.968H21.0959Z" fill="black"/>
<path d="M25.8482 9.30748C25.7983 9.22542 25.5214 8.72273 25.2989 7.34792C25.1298 6.30305 24.4828 5.04262 22.4818 4.46093C22.864 3.98693 23.0853 3.40137 23.0853 2.78574C23.0853 1.24969 21.7465 0 20.1007 0H5.89925C4.25359 0 2.91473 1.24969 2.91473 2.78574C2.91473 3.40056 3.13563 3.98562 3.51717 4.45943C1.51541 5.04087 0.868385 6.30236 0.699446 7.34842C0.477543 8.72292 0.201402 9.22554 0.151517 9.30779C0.0176651 9.44892 -0.0229792 9.62104 0.0118397 9.80848C0.0475291 10.0003 0.19571 10.1451 0.380786 10.2351L0.887267 10.4816V25.9677C0.887267 29.2939 3.78641 32 7.34999 32H18.6501C22.2136 32 25.1128 29.2939 25.1128 25.9677V10.4815L25.6193 10.2352C25.8043 10.1452 25.9525 10.0003 25.9882 9.80842C26.023 9.62092 25.9822 9.44867 25.8482 9.30748ZM2.0237 7.53474C2.14872 6.76061 2.59701 5.70143 5.03554 5.44174L5.11154 5.43368H12.5313C12.9011 5.43368 13.2009 5.1538 13.2009 4.80868C13.2009 4.46355 12.9011 4.18368 12.5313 4.18368H5.217C4.63666 3.93618 4.25385 3.38681 4.25385 2.78581C4.25385 1.939 4.99195 1.25006 5.89918 1.25006H20.1007C21.008 1.25006 21.7461 1.939 21.7461 2.78581C21.7461 3.38699 21.3635 3.93618 20.7831 4.18368H19.0598C18.69 4.18368 18.3902 4.46355 18.3902 4.80868C18.3902 5.1538 18.69 5.43368 19.0598 5.43368H20.8771L20.9648 5.44299C23.4016 5.70374 23.8497 6.76167 23.9748 7.53474C24.1178 8.41817 24.287 9.01061 24.4358 9.40123C24.0589 9.58592 23.7587 9.80279 23.493 9.99461C22.9834 10.3632 22.6759 10.5857 21.9388 10.5857C21.2028 10.5857 20.8958 10.364 20.387 9.99629C19.788 9.56336 18.9675 8.97042 17.4686 8.97042C15.9707 8.97042 15.1507 9.56292 14.5517 9.99579C14.0425 10.3637 13.7353 10.5857 12.9991 10.5857C12.2626 10.5857 11.956 10.3639 11.4474 9.99592C10.848 9.56311 10.0269 8.97042 8.52955 8.97042C7.03147 8.97042 6.21148 9.56304 5.61253 9.99579C5.10337 10.3637 4.79616 10.5857 4.06001 10.5857C3.32325 10.5857 3.01671 10.3639 2.50641 9.99467C2.24132 9.80298 1.94121 9.58586 1.56376 9.40111C1.71214 9.01055 1.88101 8.41817 2.0237 7.53474ZM18.65 30.7499H7.34992C4.52484 30.7499 2.22639 28.6046 2.22639 25.9676V11.3508C2.67662 11.6226 3.22127 11.8358 4.05994 11.8358C5.25383 11.8358 5.85285 11.4029 6.43245 10.9841C6.97589 10.5914 7.48913 10.2205 8.52941 10.2205C9.56929 10.2205 10.0835 10.5917 10.6275 10.9845C11.206 11.403 11.8043 11.8358 12.999 11.8358C14.193 11.8358 14.792 11.4029 15.3717 10.9841C15.9151 10.5914 16.4284 10.2205 17.4686 10.2205C18.5096 10.2205 19.0232 10.5917 19.5675 10.985C20.1464 11.4032 20.745 11.8357 21.9387 11.8357C22.7773 11.8357 23.3226 11.6222 23.7735 11.3501V25.9676C23.7735 28.6046 21.4752 30.7499 18.65 30.7499Z" fill="black"/>
<path d="M6.99642 25.1724L9.82954 26.6992C9.93312 26.755 10.0487 26.7829 10.1643 26.7829C10.28 26.7829 10.3955 26.7551 10.4991 26.6992L12.9975 25.3528L15.4958 26.6992C15.5994 26.755 15.715 26.7829 15.8306 26.7829C15.9463 26.7829 16.0619 26.7551 16.1654 26.6992L18.9986 25.1724C19.2057 25.0608 19.3334 24.8544 19.3334 24.6311V21.5776C19.3334 21.3544 19.2057 21.148 18.9986 21.0364L16.5002 19.69V16.9951C16.5002 16.7718 16.3726 16.5655 16.1654 16.4538L13.3323 14.927C13.1251 14.8153 12.8699 14.8153 12.6627 14.927L9.82954 16.4538C9.62236 16.5655 9.49474 16.7718 9.49474 16.9951V19.69L6.99642 21.0364C6.78925 21.148 6.66162 21.3544 6.66162 21.5776V24.6311C6.66162 24.8544 6.78931 25.0608 6.99642 25.1724ZM17.9942 24.2703L15.8306 25.4362L13.6671 24.2703V21.9384L15.8306 20.7725L17.9942 21.9384V24.2703ZM10.8339 17.3558L12.9975 16.1899L15.161 17.3558V19.6877L12.9975 20.8536L10.8339 19.6877V17.3558ZM8.00081 21.9385L10.1643 20.7725L12.3279 21.9385V24.2703L10.1643 25.4363L8.00081 24.2703V21.9385Z" fill="black"/>
</svg>
