<svg width="16" height="14" viewBox="0 0 16 14" fill="none" xmlns="http://www.w3.org/2000/svg">
<path d="M2.59949 10.6853C2.69604 10.5775 2.82879 10.5146 2.96958 10.5146H15.7377C15.971 10.5146 16.0877 10.8291 15.9228 11.0132L13.4005 13.8294C13.304 13.9372 13.1712 14.0001 13.0304 14.0001H0.262288C0.02897 14.0001 -0.087689 13.6857 0.0772427 13.5015L2.59949 10.6853Z" fill="white"/>
<path d="M2.59949 0.170677C2.70006 0.0628811 2.83281 0 2.96958 0H15.7377C15.971 0 16.0877 0.314406 15.9228 0.498557L13.4005 3.31473C13.304 3.42253 13.1712 3.48541 13.0304 3.48541H0.262288C0.02897 3.48541 -0.087689 3.171 0.0772427 2.98685L2.59949 0.170677Z" fill="white"/>
<path d="M13.4005 5.39431C13.304 5.28651 13.1712 5.22363 13.0304 5.22363H0.262288C0.02897 5.22363 -0.087689 5.53804 0.0772427 5.72219L2.59949 8.53837C2.69604 8.64616 2.82879 8.70904 2.96958 8.70904H15.7377C15.971 8.70904 16.0877 8.39464 15.9228 8.21049L13.4005 5.39431Z" fill="white"/>
</svg>
